<?xml version="1.0" encoding="utf-8"?>
<!-- Generator: Adobe Illustrator 16.0.0, SVG Export Plug-In . SVG Version: 6.00 Build 0)  -->
<!DOCTYPE svg PUBLIC "-//W3C//DTD SVG 1.1//EN" "http://www.w3.org/Graphics/SVG/1.1/DTD/svg11.dtd">
<svg version="1.1" id="Layer_1" xmlns="http://www.w3.org/2000/svg" xmlns:xlink="http://www.w3.org/1999/xlink" x="0px" y="0px"
	 width="600px" height="398px" viewBox="0 0 600 398" enable-background="new 0 0 600 398" xml:space="preserve">
<g>
	<path fill="#FFFFFF" d="M533,290.667H276.346l-0.589-0.932c-10.169-16.094-29.452-37.074-64.114-47.657
		c4.909,8.667,14.879,28.599,14.328,46.649l-0.059,1.939H67c-9.925,0-18,8.075-18,18v50c0,9.925,8.075,18,18,18h466
		c9.925,0,18-8.075,18-18v-50C551,298.742,542.925,290.667,533,290.667z"/>
	<path d="M533,286.667H278.544c-11.179-17.308-32.416-39.637-70.69-49.83l-4.998-1.331l2.803,4.348
		c0.165,0.256,16.026,25.113,16.329,46.813H67c-12.131,0-22,9.869-22,22v50c0,12.131,9.869,22,22,22h466c12.131,0,22-9.869,22-22
		v-50C555,296.536,545.131,286.667,533,286.667z M551,358.667c0,9.925-8.075,18-18,18H67c-9.925,0-18-8.075-18-18v-50
		c0-9.925,8.075-18,18-18h158.912l0.059-1.939c0.551-18.051-9.419-37.982-14.328-46.649c34.663,10.583,53.945,31.563,64.114,47.657
		l0.589,0.932H533c9.925,0,18,8.075,18,18V358.667z"/>
</g>
</svg>
